<?xml version="1.0" encoding="utf-8"?>
<!-- Generator: Adobe Illustrator 27.6.1, SVG Export Plug-In . SVG Version: 6.00 Build 0)  -->
<svg version="1.1" id="Layer_1" xmlns="http://www.w3.org/2000/svg" xmlns:xlink="http://www.w3.org/1999/xlink" x="0px" y="0px"
	 viewBox="0 0 391.3 437" style="enable-background:new 0 0 391.3 437;" xml:space="preserve">
<style type="text/css">
	.st0{fill:#8133FF;}
</style>
<path class="st0" d="M285.6,150.9c-7.6-7.6-18-11.8-28.4-11.8l0,0c-10.4,0-20.8,3.8-28.4,11.8c-15.6,15.6-15.6,41.2,0,57.3
	c8.1,8.1,18,11.8,28.4,11.8c10.4,0,20.8-3.8,28.4-11.8C301.3,192.5,301.3,167,285.6,150.9L285.6,150.9z"/>
<path class="st0" d="M134.1,262.7c-10.4,0-20.8,3.8-28.4,11.8c-15.6,15.6-15.6,41.2,0,57.3c8.1,8,18,11.8,28.4,11.8
	s20.8-3.8,28.4-11.8c15.6-15.6,15.6-41.2,0-57.3C154.4,266.5,144.5,262.7,134.1,262.7z"/>
<path class="st0" d="M257.2,262.7c-10.4,0-20.8,3.8-28.4,11.8c-15.6,15.6-15.6,41.2,0,57.3c8.1,8,18,11.8,28.4,11.8
	c10.4,0,20.8-3.8,28.4-11.8c15.6-15.6,15.6-41.2,0-57.3C278.1,266.5,267.7,262.7,257.2,262.7z"/>
<path class="st0" d="M162.5,150.9c-8.1-7.6-18-11.8-28.4-11.8l0,0c-10.4,0-20.8,3.8-28.4,11.8c-15.6,15.6-15.6,41.2,0,57.3
	c8.1,8.1,18.5,11.8,28.4,11.8s20.8-3.8,28.4-11.8C178.1,192.5,178.1,167,162.5,150.9L162.5,150.9z"/>
<path class="st0" d="M182.9,228.6c-7.1,7.1-7.1,18.5,0,25.6c3.3,3.3,8.1,5.2,12.8,5.2s9-1.9,12.8-5.2c7.1-7.1,7.1-18.5,0-25.6
	c-3.8-3.3-8.1-5.2-12.8-5.2S186.6,225.2,182.9,228.6L182.9,228.6z"/>
<path class="st0" d="M367.6,389.6H193.8c-1.3,0-2.6,0.1-3.9,0.3c-79.3-3-142.5-68.1-142.5-148.1S114.2,93.6,195.6,93.6
	s148.3,66.8,148.3,148.3c0,34.6-11.8,67.7-33.6,94.3c-8,10-6.6,24.6,3.3,33.2c10,8,24.6,6.6,33.2-3.3
	c28.9-35.1,44.5-79.1,44.5-124.6c0-52.3-20.6-99.9-54.1-135c0,0.6,0.1,1.2,0.1,1.8c-23-24.3-52.3-42.7-85.2-52.7
	c0.3-0.4,0.6-0.8,0.8-1.2c-18.1-5.6-37.4-8.6-57.4-8.6c-18.4,0-36.3,2.6-53.2,7.3c0.2,0.3,0.5,0.7,0.7,1.1
	c-32,8.8-60.7,25.6-83.8,48c0-0.4,0.1-0.8,0.1-1.2C22.8,136.5,0,186.3,0,241.4C0,348.5,86.3,435.6,193.1,437c0.2,0,0.4,0,0.7,0
	h173.9c12.8,0,23.7-10.4,23.7-23.7S380.9,389.6,367.6,389.6L367.6,389.6z"/>
<path class="st0" d="M337.4,108.1c0-0.6-0.1-1.2-0.1-1.8C333.4,58.8,326.4,2.8,314.6,0h-3c-14.7,0-38,24.7-58.6,54.3
	c-0.3,0.4-0.6,0.8-0.8,1.2C285.1,65.4,314.3,83.8,337.4,108.1L337.4,108.1z"/>
<path class="st0" d="M143.2,54.1c-0.2-0.4-0.5-0.7-0.7-1.1C122.3,24.1,97.9,0,84,0C70.9,2.8,63.5,54.7,59.5,100.9
	c0,0.4-0.1,0.8-0.1,1.2C82.5,79.7,111.2,62.9,143.2,54.1L143.2,54.1z"/>
</svg>
