<?xml version="1.0" encoding="utf-8"?>
<!-- Generator: Adobe Illustrator 27.6.1, SVG Export Plug-In . SVG Version: 6.00 Build 0)  -->
<svg version="1.1" id="Layer_1" xmlns="http://www.w3.org/2000/svg" xmlns:xlink="http://www.w3.org/1999/xlink" x="0px" y="0px"
	 viewBox="0 0 600 118" style="enable-background:new 0 0 600 118;" xml:space="preserve">
<style type="text/css">
	.st0{fill:#1C0313;stroke:#000000;stroke-miterlimit:10;}
	.st1{font-family:'Termina-Black';}
	.st2{font-size:48.1369px;}
	.st3{letter-spacing:1;}
	.st4{fill:#FDDFEF;stroke:#1C0313;stroke-miterlimit:10;}
	.st5{fill:#1C0313;}
	.st6{fill:#0C0C0C;}
	.st7{fill:#FDDFEF;}
	.st8{font-family:'ArianaPro-Regular';}
	.st9{font-size:30.4863px;}
	.st10{letter-spacing:9;}
</style>
<text transform="matrix(1 0 0 1 88.0771 60.6377)"><tspan x="0" y="0" class="st0 st1 st2 st3">C</tspan><tspan x="45.1" y="0" class="st0 st1 st2 st3">a</tspan><tspan x="84.3" y="0" class="st0 st1 st2 st3">tMood</tspan><tspan x="294.2" y="0" class="st0 st1 st2 st3">M</tspan><tspan x="350.7" y="0" class="st0 st1 st2">o</tspan><tspan x="389.7" y="0" class="st0 st1 st2 st3">vi</tspan><tspan x="448.5" y="0" class="st0 st1 st2">e</tspan></text>
<text transform="matrix(1 0 0 1 90.9653 56.5938)"><tspan x="0" y="0" class="st4 st1 st2 st3">C</tspan><tspan x="45.1" y="0" class="st4 st1 st2 st3">a</tspan><tspan x="84.3" y="0" class="st4 st1 st2 st3">tMood</tspan><tspan x="294.2" y="0" class="st4 st1 st2 st3">M</tspan><tspan x="350.7" y="0" class="st4 st1 st2">o</tspan><tspan x="389.7" y="0" class="st4 st1 st2 st3">vi</tspan><tspan x="448.5" y="0" class="st4 st1 st2">e</tspan></text>
<g>
	<path class="st5" d="M300.8,174.5c0-2.4-2.2-3.9-5.5-3.9H292v7.9h3.3C298.6,178.5,300.8,176.9,300.8,174.5z"/>
	<path class="st5" d="M231.7,170.2c-4.7,0-8.2,3.7-8.2,8.4c0,4.7,3.5,8.4,8.2,8.4c4.5,0,8.2-3.6,8.2-8.4
		C239.9,173.8,236.2,170.2,231.7,170.2z"/>
	<path class="st5" d="M383.3,170.2c-4.7,0-8.2,3.7-8.2,8.4c0,4.7,3.5,8.4,8.2,8.4c4.5,0,8.2-3.6,8.2-8.4
		C391.6,173.8,387.8,170.2,383.3,170.2z"/>
	<polygon class="st5" points="118.3,181.8 127.1,181.8 122.7,172.7 	"/>
	<path class="st5" d="M80.4,165.2v27.1h410.8v-27.1H80.4z M486.1,167.9h2.7v4.6l-0.6,10.3h-1.4l-0.6-10.3V167.9z M93.4,186.9
		c2.6,0,5.6-1,7.4-2.5h0.2v3c-2,1.3-4.7,2.2-7.8,2.2c-5.8,0-11-4.4-11-11c0-6.7,5.1-11.1,11.3-11.1c2.8,0,5.6,0.9,7.7,2.5l-1.1,2.3
		l-0.2,0c-1.8-1.5-4.5-2.1-6.4-2.1c-4.5,0-8.4,3.4-8.4,8.5C85.1,183.6,89.1,186.9,93.4,186.9z M130.7,189.2l-2.3-4.8H117l-2.3,4.8
		h-3l10.4-21.4h1.3l10.4,21.4H130.7z M161.6,170.6h-7.5v18.7h-2.9v-18.7h-7.5v-2.7h17.9V170.6z M209.2,168.2l-8.6,11.4v9.7h-2.9
		v-9.7l-8.7-11.4v-0.3h3l7.1,9.4l7.1-9.4h3V168.2z M231.7,189.6c-6.3,0-11.1-4.7-11.1-11c0-6.3,4.9-11,11.1-11
		c6.4,0,11.2,4.8,11.2,11C242.8,184.9,237.9,189.6,231.7,189.6z M274.1,179.9c0,5.8-3.5,9.7-8.9,9.7s-8.9-3.9-8.9-9.7v-12.1h2.9V180
		c0,4.1,2.3,7,6,7s5.9-2.8,5.9-7v-12h2.9V179.9z M305.2,189.2h-3.3l-8-8.2H292v8.2h-2.9v-21.4h6.2c5.1,0,8.5,2.4,8.5,6.6
		c0,3.5-2.4,5.8-6.3,6.4l7.9,8.1L305.2,189.2z M358.4,189.2h-2.9v-14.7l-8.2,11h-0.8l-8.2-11v14.7h-2.9v-21.4h1.5l10,13.5l10-13.5
		h1.5V189.2z M383.3,189.6c-6.3,0-11.1-4.7-11.1-11c0-6.3,4.9-11,11.1-11c6.4,0,11.2,4.8,11.2,11
		C394.5,184.9,389.5,189.6,383.3,189.6z M425.9,168.2l-9.5,21.1h-1.3l-9.5-21.1v-0.3h3l7.1,16.3l7-16.3h3.1V168.2z M446,170.5h-3v16
		h3v2.7h-8.9v-2.7h3v-16h-3v-2.7h8.9V170.5z M472.2,170.6h-9.3v6.9h8.8v2.7h-8.8v6.5h9.3v2.7h-12.2v-21.4h12.2V170.6z M487.4,189.5
		c-1.1,0-1.9-0.9-1.9-1.9c0-1,0.8-1.9,1.9-1.9c1.1,0,1.9,0.9,1.9,1.9C489.3,188.7,488.4,189.5,487.4,189.5z"/>
</g>
<path class="st6" d="M43.9,22.2c1.8,0,3.5,0,5.3,0c0.4,0,0.6-0.1,0.5-0.5c0-0.4-0.1-0.8,0.2-1.1c0.3-0.4,0.8-0.4,1.2-0.4
	c0.5,0,0.7-0.1,0.7-0.6c-0.1-1.1,0.5-1.7,1.6-1.7c0.3,0,0.4-0.1,0.4-0.4c0-0.4-0.1-0.8,0.1-1.1c0.3-0.4,0.7-0.5,1.2-0.5
	c0.7,0,0.8,0,0.7-0.7c-0.1-0.9,0.4-1.4,1.3-1.3c0.3,0,0.6,0,0.9,0c0.6,0,0.9,0.4,1,1c0,1,0,1,1,1.1c0.6,0,1,0.4,1,1
	c0,0.9,0,1.8,0,2.7c0,0.5,0.1,0.8,0.7,0.7c0.2,0,0.5,0,0.7,0c0.6,0,0.9,0.4,0.9,0.9c0,0.9,0,1.8,0,2.7c0,0.4,0.1,0.5,0.4,0.4
	c0.1,0,0.3,0,0.4,0c0.9,0,1.2,0.3,1.2,1.2c0,1.5,0,3.1,0,4.6c0,0.5,0.1,0.6,0.6,0.6c0.3,0,0.7-0.1,0.9,0.1c0.4,0.2,0.6,0.6,0.6,1.1
	c0,4.5,0,9,0,13.4c0,0.8-0.3,1.1-1.1,1.1c-0.9,0-0.9,0-0.9,0.9c0,0.8,0,1.6,0,2.4c0,0.8-0.3,1.1-1.1,1.1c-0.1,0-0.2,0-0.2,0
	c-0.6-0.1-0.8,0.1-0.7,0.7c0.1,0.9-0.4,1.5-1.3,1.3c-0.1,0-0.1,0-0.2,0c-0.8,0-0.9-0.2-0.8,0.8c0,0.9-0.3,1.2-1.2,1.2
	c-0.1,0-0.1,0-0.2,0c-0.6,0-0.9,0.6-0.6,1.1c0.1,0.2,0.3,0.1,0.4,0.1c0.4,0.1,0.9-0.2,1.3,0.3c0.2,0.2,0.3,0.4,0.3,0.6
	c0,1,0,1.9,0,2.9c0,0.5,0.1,0.7,0.6,0.6c0.3,0,0.5,0,0.8,0c0.6,0,0.9,0.4,0.9,1c0,0.8,0,1.7,0,2.5c0,0.5,0.2,0.6,0.6,0.6
	c0.3,0,0.7-0.1,1.1,0.2c0.3,0.3,0.4,0.5,0.4,0.9c0,1.6,0,3.1,0,4.7c0,0.5,0.2,0.6,0.6,0.6c0.1,0,0.3,0,0.4,0c0.6,0,1,0.4,1,1
	c0,1.6,0,3.2,0,4.8c0,0.5,0.2,0.6,0.6,0.6c0.3,0,0.6,0,0.8,0c0.5,0,0.9,0.4,0.9,0.9c0,2.8,0,5.6,0,8.3c0,0.2,0,0.4-0.1,0.5
	c-0.1,0.1-0.2,0.3,0,0.4c0.2,0.3,0.5,0.2,0.8,0.2c0.2,0,0.2-0.2,0.2-0.4c0-0.8,0-1.6,0-2.5c0-0.9,0.3-1.2,1.2-1.2c0.2,0,0.4,0,0.6,0
	c0.4,0,0.6-0.2,0.6-0.6c0-1.8,0-3.6,0-5.4c0-0.2,0-0.5-0.2-0.7c0,0-0.1-0.2-0.1-0.2c0.3-0.6,0.1-1.3,0.8-1.7
	c0.3-0.2,0.6-0.2,0.9,0.1c0.3,0.2,0.6,0.1,0.6-0.3c0-0.9,0-1.9,0-2.8c0-0.8,0.3-1.1,1.1-1.1c0.1,0,0.1,0,0.2,0
	c0.9,0,0.7,0.1,0.7-0.7c0-1.1,0.2-1.3,1.2-1.3c0.8,0,0.8,0,0.8-0.8c0-0.8,0.3-0.9,0.8-1.2c1-0.5,2-0.2,2.9-0.3
	c0.7-0.1,0.7,0,0.7-0.7c0-1.1,0.2-1.3,1.3-1.3c1.6,0,3.2,0,4.9,0c0.7,0,1.1,0.4,1.1,1.1c0,0,0,0.1,0,0.1c0,0.8,0,0.8,0.8,0.8
	c0.9,0,1.2,0.3,1.2,1.2c0,1,0,2.1,0,3.1c0,0.5-0.4,0.9-0.9,0.9c-0.9,0-1.7,0-2.6,0c-0.5,0-0.6,0.1-0.6,0.6c0,0.2,0,0.4,0,0.7
	c0,0.8-0.3,1.1-1.1,1.1c-0.8,0-1.6,0-2.4,0c-1,0-0.8-0.1-0.9,0.8c0,0.3,0,0.6-0.3,0.9c-0.3,0.3-0.6,0.3-1,0.3c-0.8,0-0.8,0-0.8,0.8
	c0,0.9,0,1.8,0,2.6c0,0.6-0.4,0.9-1,1c-1.2,0-1.2,0-1.2,1.2c0,1.9,0,3.8,0,5.7c0,0.9-0.6,1.5-1.5,1.5c-0.8,0-0.8,0-0.8,0.8
	c0,0.7,0,1.4,0,2.1c0,0.8-0.3,1.1-1.1,1.1c-0.1,0-0.3,0-0.4,0c-0.4,0-0.5,0.1-0.5,0.5c0,0.4,0.1,0.7-0.1,1.1
	C75.4,95.1,75,95,74.5,95c-0.5-0.1-0.7,0.1-0.7,0.6c0.1,1.2-0.5,1.7-1.7,1.7c-0.7,0-1.5,0-2.2,0c-0.4,0-0.6,0.2-0.3,0.6
	c0.2,0.3,0.2,0.5,0,0.7c-0.4,0.5-0.8,0.8-1.4,0.7c-0.7,0-1.3,0-2,0c-0.5,0-0.8,0.1-0.7,0.7c0,0.3,0.1,0.7-0.3,1
	c-0.2,0.2-0.5,0.3-0.8,0.3c-5.8,0-11.6,0-17.5,0c-5.7,0-11.4,0-17.1,0c-1.1,0-1.4-0.2-1.3-1.3c0-0.6-0.2-0.7-0.7-0.7
	c-0.7,0.1-1.5,0-2.2,0c-0.9,0-1.2-0.3-1.2-1.2c0-0.1,0-0.3,0-0.4c0-0.4-0.1-0.5-0.5-0.4c-0.7,0.1-1.3-0.1-1.7-0.7
	c-0.2-0.4-0.2-0.7-0.2-1.1c0-0.5-0.1-0.6-0.6-0.6c-0.1,0-0.3,0-0.4,0c-0.7,0-1-0.4-1-1c0-0.8,0-1.6,0-2.5c0-0.5-0.1-0.6-0.6-0.6
	c-0.2,0-0.3,0-0.5,0c-0.6,0-0.9-0.4-0.9-0.9c0-3.9,0-7.9,0-11.8c0-0.5,0.4-0.9,0.9-0.9c1.1-0.1,1.1-0.1,1.1-1.2c0-1.3,0-2.7,0-4
	c0-0.9,0.3-1.2,1.2-1.2c0.9,0,0.8,0.1,0.8-0.8c0-1.4,0-2.7,0-4.1c0-0.9,0.6-1.5,1.5-1.5c0.1,0,0.3,0,0.4,0c0.3,0,0.4-0.1,0.4-0.4
	c0-0.8,0-1.7,0-2.5c0-0.8,0.3-1.1,1.1-1.1c0.9,0,0.9,0,0.9-0.9c0-0.8,0-1.6,0-2.4c0-0.7,0.3-1,1.1-1.1c0.1,0,0.2,0,0.3,0
	c0.5,0.1,0.7-0.2,0.7-0.7c0-0.4-0.1-0.6-0.6-0.6c-0.4,0-0.9,0.1-1.2-0.3c-0.3-0.3-0.2-0.7-0.2-1c0-0.5-0.1-0.8-0.7-0.7
	c-1,0.2-1.5-0.5-1.4-1.4c0.1-0.5-0.1-0.6-0.6-0.6c-1.2,0-1.7-0.5-1.7-1.8c0-0.6,0-1.2,0-1.8c0-0.7,0-0.7-0.7-0.8
	c-0.4,0-0.8,0-1.1-0.4c-0.1-0.2-0.2-0.4-0.2-0.6c0-4.6,0-9.1,0-13.7c0-0.7,0.3-1,1-1c0.1,0,0.2,0,0.3,0c0.7,0,0.7,0,0.7-0.8
	c0-1.4,0-2.8,0-4.2c0-0.8,0.7-1.5,1.5-1.5c0.1,0,0.3,0,0.4,0c0.3,0.1,0.4-0.1,0.4-0.4c0-0.9,0-1.8,0-2.6c0-0.7,0.4-1,1.1-1
	c1,0,1,0,1-1c0-0.8,0-1.6,0-2.4c0-0.7,0.3-1.1,1.1-1.1c0.1,0,0.2,0,0.2,0c0.6,0.1,0.8-0.1,0.7-0.7c-0.1-0.9,0.4-1.5,1.3-1.3
	c0.3,0,0.6,0,0.9,0c0.6,0,0.9,0.4,0.9,1c0,1,0,1,1,1.1c0.6,0,1,0.4,1,1c0,0,0,0.1,0,0.1c0,0.9,0,0.9,0.9,0.9c0.8,0,1.1,0.3,1.1,1.1
	c0,1.2,0,1.2,1.3,1.3c0.8,0,1.1,0.3,1.1,1.1c0,0.1,0,0.3,0,0.4c-0.1,0.4,0.1,0.5,0.5,0.5C40.4,22.2,42.2,22.3,43.9,22.2
	C43.9,22.3,43.9,22.2,43.9,22.2z"/>
<path class="st7" d="M56.7,38.9C56.7,38.9,56.7,38.9,56.7,38.9c0,0.8,0,1.6,0,2.5c0,0.8-0.1,0.9-0.8,0.8c-1.1-0.1-2.1-0.1-3.2,0
	c-0.5,0-0.6-0.1-0.7-0.6c-0.1-1.7-0.1-3.4,0-5.1c0-0.5-0.2-0.7-0.7-0.7c-0.9,0-1.7,0-2.6,0c-0.3,0-0.5,0.1-0.5,0.5
	c0,1.6,0,3.2,0,4.9c0,0.4,0.1,0.5,0.5,0.5c0.4,0,0.7,0,1.1,0c0.1,0,0.3,0,0.3,0.2c0,0.4,0.2,0.7,0.1,1.1c-0.1,0.8-0.1,0.8,0.7,0.8
	c2.2,0,4.3,0,6.5,0.1c0.9,0,0.9-0.1,1-0.9c0-1.2,0-1.2,1.2-1.2c0.5,0,0.7-0.2,0.7-0.7c0-1.6,0-3.1,0-4.7c0-0.4-0.1-0.5-0.5-0.5
	c-0.8,0-1.6,0-2.5,0c-0.7,0-0.7,0.1-0.7,0.8C56.7,37.2,56.7,38.1,56.7,38.9z"/>
<path class="st7" d="M27.1,38.2c0,0.8,0.1,1.6,0,2.5c-0.1,0.5,0.3,0.8,0.8,0.8c0.2,0,0.4,0,0.7-0.1c0.3,0,0.6,0.1,0.7,0.4
	c0.1,0.3,0.2,0.6,0.2,1c0,0.7,0.1,0.9,0.9,0.8c2-0.2,4-0.1,6,0c0.9,0,0.9,0.1,0.9-0.8c0-1.4-0.1-1.4,1.4-1.3c0.3,0,0.6,0,0.6-0.5
	c0-1.6,0.1-3.2,0.1-4.9c0-0.4-0.1-0.5-0.5-0.5c-0.9,0-1.8,0-2.7,0c-0.5,0-0.7,0.4-0.6,0.8c0.1,0.2,0.2,0.4,0.1,0.6
	c-0.1,1.3-0.1,2.6,0,3.9c0,0.6-0.4,1.1-1,1.1c-1,0-2,0-3,0c-0.5,0-0.8-0.3-0.9-0.7c-0.2-1.1-0.1-2.3-0.1-3.4c0-0.6,0.1-1.1,0.1-1.7
	c0-0.4-0.1-0.6-0.6-0.6c-0.9,0-1.8,0-2.6,0c-0.5,0-0.6,0.2-0.6,0.7C27.1,36.9,27.1,37.6,27.1,38.2z"/>
<rect x="94.9" y="73.8" class="st6" width="410.7" height="27.1"/>
<text transform="matrix(1 0 0 1 95.0859 97.8457)" class="st7 st8 st9 st10">CAT YOUR MOVIE!</text>
</svg>
